<svg width="662.175048828125px" height="96.84004516601563px" xmlns="http://www.w3.org/2000/svg" viewBox="-81.0875244140625 26.579977416992186 662.175048828125 96.84004516601563" style="background: rgba(0, 0, 0, 0);" preserveAspectRatio="xMidYMid"><defs><filter id="editing-hole" x="-100%" y="-100%" width="300%" height="300%"><feFlood flood-color="#7e6969" result="black"></feFlood><feMorphology operator="dilate" radius="2" in="SourceGraphic" result="erode"></feMorphology><feGaussianBlur in="erode" stdDeviation="4" result="blur"></feGaussianBlur><feOffset in="blur" dx="2" dy="2" result="offset"></feOffset><feComposite operator="atop" in="offset" in2="black" result="merge"></feComposite><feComposite operator="in" in="merge" in2="SourceGraphic" result="inner-shadow"></feComposite></filter></defs><g filter="url(#editing-hole)"><g transform="translate(14.850000023841858, 91.92499923706055)"><path d="M14.09-32.91L18.80-32.91L31.49 0L26.78 0L23.87-7.57L9.02-7.57L6.10 0L1.40 0L14.09-32.91ZM16.45-26.78L10.81-12.28L22.05-12.28L16.45-26.78ZM36.67-4.52L36.67-19.92L36.67-19.92Q36.67-20.86 37.03-21.69L37.03-21.69L37.03-21.69Q37.38-22.51 37.99-23.12L37.99-23.12L37.99-23.12Q38.60-23.73 39.43-24.09L39.43-24.09L39.43-24.09Q40.25-24.44 41.17-24.44L41.17-24.44L53.77-24.44L53.77-33.85L58.29-33.85L58.29 0L53.77 0L53.77-4.13L53.77-4.13Q53.70-3.28 53.31-2.52L53.31-2.52L53.31-2.52Q52.92-1.77 52.31-1.20L52.31-1.20L52.31-1.20Q51.70-0.64 50.92-0.32L50.92-0.32L50.92-0.32Q50.14 0 49.27 0L49.27 0L41.17 0L41.17 0Q40.25 0 39.43-0.36L39.43-0.36L39.43-0.36Q38.60-0.71 37.99-1.32L37.99-1.32L37.99-1.32Q37.38-1.93 37.03-2.75L37.03-2.75L37.03-2.75Q36.67-3.58 36.67-4.52L36.67-4.52ZM41.17-19.92L41.17-4.52L53.77-4.52L53.77-19.92L41.17-19.92ZM65.82-4.52L65.82-19.92L65.82-19.92Q65.82-20.86 66.17-21.69L66.17-21.69L66.17-21.69Q66.53-22.51 67.14-23.12L67.14-23.12L67.14-23.12Q67.75-23.73 68.57-24.09L68.57-24.09L68.57-24.09Q69.40-24.44 70.32-24.44L70.32-24.44L82.92-24.44L82.92-33.85L87.44-33.85L87.44 0L82.92 0L82.92-4.13L82.92-4.13Q82.85-3.28 82.46-2.52L82.46-2.52L82.46-2.52Q82.07-1.77 81.46-1.20L81.46-1.20L81.46-1.20Q80.85-0.64 80.07-0.32L80.07-0.32L80.07-0.32Q79.29 0 78.42 0L78.42 0L70.32 0L70.32 0Q69.40 0 68.57-0.36L68.57-0.36L68.57-0.36Q67.75-0.71 67.14-1.32L67.14-1.32L67.14-1.32Q66.53-1.93 66.17-2.75L66.17-2.75L66.17-2.75Q65.82-3.58 65.82-4.52L65.82-4.52ZM70.32-19.92L70.32-4.52L82.92-4.52L82.92-19.92L70.32-19.92ZM95.19-24.44L99.71-24.44L99.71 0L95.19 0L95.19-24.44ZM94.96-29.15L94.96-33.85L99.94-33.85L99.94-29.15L94.96-29.15ZM106.05-19.92L106.05-24.44L112.02-24.44L112.02-31.97L116.54-31.97L116.54-24.44L124.57-24.44L124.57-19.92L116.54-19.92L116.54-4.52L124.57-4.52L124.57 0L116.54 0L116.54 0Q115.62 0 114.79-0.36L114.79-0.36L114.79-0.36Q113.97-0.71 113.35-1.32L113.35-1.32L113.35-1.32Q112.73-1.93 112.37-2.75L112.37-2.75L112.37-2.75Q112.02-3.58 112.02-4.52L112.02-4.52L112.02-19.92L106.05-19.92ZM132.33-24.44L136.85-24.44L136.85 0L132.33 0L132.33-24.44ZM132.10-29.15L132.10-33.85L137.08-33.85L137.08-29.15L132.10-29.15ZM165.74-19.92L165.74-4.52L165.74-4.52Q165.74-3.58 165.38-2.75L165.38-2.75L165.38-2.75Q165.03-1.93 164.42-1.32L164.42-1.32L164.42-1.32Q163.81-0.71 163.00-0.36L163.00-0.36L163.00-0.36Q162.18 0 161.24 0L161.24 0L149.10 0L149.10 0Q148.18 0 147.36-0.36L147.36-0.36L147.36-0.36Q146.53-0.71 145.92-1.32L145.92-1.32L145.92-1.32Q145.31-1.93 144.96-2.75L144.96-2.75L144.96-2.75Q144.60-3.58 144.60-4.52L144.60-4.52L144.60-19.92L144.60-19.92Q144.60-20.86 144.96-21.69L144.96-21.69L144.96-21.69Q145.31-22.51 145.92-23.12L145.92-23.12L145.92-23.12Q146.53-23.73 147.36-24.09L147.36-24.09L147.36-24.09Q148.18-24.44 149.10-24.44L149.10-24.44L161.24-24.44L161.24-24.44Q162.18-24.44 163.00-24.09L163.00-24.09L163.00-24.09Q163.81-23.73 164.42-23.12L164.42-23.12L164.42-23.12Q165.03-22.51 165.38-21.69L165.38-21.69L165.38-21.69Q165.74-20.86 165.74-19.92L165.74-19.92ZM161.24-19.92L149.10-19.92L149.10-4.52L161.24-4.52L161.24-19.92ZM194.88-19.92L194.88 0L190.36 0L190.36-19.92L177.76-19.92L177.76 0L173.27 0L173.27-24.44L177.76-24.44L177.76-20.13L177.76-20.13Q177.81-21.02 178.18-21.81L178.18-21.81L178.18-21.81Q178.54-22.60 179.15-23.19L179.15-23.19L179.15-23.19Q179.76-23.78 180.56-24.11L180.56-24.11L180.56-24.11Q181.37-24.44 182.29-24.44L182.29-24.44L190.36-24.44L190.36-24.44Q191.30-24.44 192.13-24.09L192.13-24.09L192.13-24.09Q192.96-23.73 193.57-23.12L193.57-23.12L193.57-23.12Q194.17-22.51 194.53-21.69L194.53-21.69L194.53-21.69Q194.88-20.86 194.88-19.92L194.88-19.92ZM202.41-4.52L202.41-10.67L202.41-10.67Q202.41-11.61 202.77-12.43L202.77-12.43L202.77-12.43Q203.12-13.24 203.73-13.86L203.73-13.86L203.73-13.86Q204.34-14.48 205.17-14.84L205.17-14.84L205.17-14.84Q205.99-15.19 206.91-15.19L206.91-15.19L218.57-15.19L218.57-19.92L203.81-19.92L203.81-24.44L218.57-24.44L218.57-24.44Q219.51-24.44 220.34-24.09L220.34-24.09L220.34-24.09Q221.16-23.73 221.77-23.12L221.77-23.12L221.77-23.12Q222.38-22.51 222.73-21.69L222.73-21.69L222.73-21.69Q223.09-20.86 223.09-19.92L223.09-19.92L223.09 0L218.57 0L218.57-4.13L218.57-4.13Q218.50-3.28 218.11-2.52L218.11-2.52L218.11-2.52Q217.72-1.77 217.11-1.20L217.11-1.20L217.11-1.20Q216.50-0.64 215.72-0.32L215.72-0.32L215.72-0.32Q214.94 0 214.07 0L214.07 0L206.91 0L206.91 0Q205.99 0 205.17-0.36L205.17-0.36L205.17-0.36Q204.34-0.71 203.73-1.32L203.73-1.32L203.73-1.32Q203.12-1.93 202.77-2.75L202.77-2.75L202.77-2.75Q202.41-3.58 202.41-4.52L202.41-4.52ZM206.91-10.67L206.91-4.52L218.57-4.52L218.57-10.67L206.91-10.67ZM230.62-33.85L235.11-33.85L235.11 0L230.62 0L230.62-33.85ZM257.19 0L257.19-32.91L281.17-32.91L281.17-28.20L261.90-28.20L261.90-18.80L278.35-18.80L278.35-14.09L261.90-14.09L261.90 0L257.19 0ZM307.96-19.92L307.96-9.91L291.78-9.91L291.78-4.52L307.96-4.52L307.96 0L291.78 0L291.78 0Q290.86 0 290.03-0.36L290.03-0.36L290.03-0.36Q289.21-0.71 288.60-1.32L288.60-1.32L288.60-1.32Q287.99-1.93 287.63-2.75L287.63-2.75L287.63-2.75Q287.28-3.58 287.28-4.52L287.28-4.52L287.28-19.92L287.28-19.92Q287.28-20.86 287.63-21.69L287.63-21.69L287.63-21.69Q287.99-22.51 288.60-23.12L288.60-23.12L288.60-23.12Q289.21-23.73 290.03-24.09L290.03-24.09L290.03-24.09Q290.86-24.44 291.78-24.44L291.78-24.44L303.43-24.44L303.43-24.44Q304.38-24.44 305.20-24.09L305.20-24.09L305.20-24.09Q306.03-23.73 306.64-23.12L306.64-23.12L306.64-23.12Q307.24-22.51 307.60-21.69L307.60-21.69L307.60-21.69Q307.96-20.86 307.96-19.92L307.96-19.92ZM303.43-19.92L291.78-19.92L291.78-14.44L303.43-14.44L303.43-19.92ZM315.48-4.52L315.48-10.67L315.48-10.67Q315.48-11.61 315.84-12.43L315.84-12.43L315.84-12.43Q316.19-13.24 316.80-13.86L316.80-13.86L316.80-13.86Q317.41-14.48 318.24-14.84L318.24-14.84L318.24-14.84Q319.06-15.19 319.98-15.19L319.98-15.19L331.64-15.19L331.64-19.92L316.88-19.92L316.88-24.44L331.64-24.44L331.64-24.44Q332.58-24.44 333.41-24.09L333.41-24.09L333.41-24.09Q334.23-23.73 334.84-23.12L334.84-23.12L334.84-23.12Q335.45-22.51 335.80-21.69L335.80-21.69L335.80-21.69Q336.16-20.86 336.16-19.92L336.16-19.92L336.16 0L331.64 0L331.64-4.13L331.64-4.13Q331.57-3.28 331.18-2.52L331.18-2.52L331.18-2.52Q330.79-1.77 330.18-1.20L330.18-1.20L330.18-1.20Q329.57-0.64 328.79-0.32L328.79-0.32L328.79-0.32Q328.01 0 327.14 0L327.14 0L319.98 0L319.98 0Q319.06 0 318.24-0.36L318.24-0.36L318.24-0.36Q317.41-0.71 316.80-1.32L316.80-1.32L316.80-1.32Q316.19-1.93 315.84-2.75L315.84-2.75L315.84-2.75Q315.48-3.58 315.48-4.52L315.48-4.52ZM319.98-10.67L319.98-4.52L331.64-4.52L331.64-10.67L319.98-10.67ZM342.26-19.92L342.26-24.44L348.23-24.44L348.23-31.97L352.75-31.97L352.75-24.44L360.78-24.44L360.78-19.92L352.75-19.92L352.75-4.52L360.78-4.52L360.78 0L352.75 0L352.75 0Q351.83 0 351.01-0.36L351.01-0.36L351.01-0.36Q350.18-0.71 349.56-1.32L349.56-1.32L349.56-1.32Q348.94-1.93 348.59-2.75L348.59-2.75L348.59-2.75Q348.23-3.58 348.23-4.52L348.23-4.52L348.23-19.92L342.26-19.92ZM368.31-4.52L368.31-24.44L372.81-24.44L372.81-4.52L385.41-4.52L385.41-24.44L389.93-24.44L389.93 0L385.41 0L385.41-4.13L385.41-4.13Q385.34-3.28 384.95-2.52L384.95-2.52L384.95-2.52Q384.56-1.77 383.95-1.20L383.95-1.20L383.95-1.20Q383.34-0.64 382.56-0.32L382.56-0.32L382.56-0.32Q381.78 0 380.91 0L380.91 0L372.81 0L372.81 0Q371.89 0 371.07-0.36L371.07-0.36L371.07-0.36Q370.24-0.71 369.63-1.32L369.63-1.32L369.63-1.32Q369.02-1.93 368.67-2.75L368.67-2.75L368.67-2.75Q368.31-3.58 368.31-4.52L368.31-4.52ZM411.27-19.92L401.96-19.92L401.96 0L397.46 0L397.46-24.44L401.96-24.44L401.96-20.13L401.96-20.13Q402.00-21.02 402.37-21.81L402.37-21.81L402.37-21.81Q402.74-22.60 403.34-23.19L403.34-23.19L403.34-23.19Q403.95-23.78 404.76-24.11L404.76-24.11L404.76-24.11Q405.56-24.44 406.48-24.44L406.48-24.44L411.27-24.44L411.27-24.44Q412.21-24.44 413.03-24.09L413.03-24.09L413.03-24.09Q413.84-23.73 414.46-23.12L414.46-23.12L414.46-23.12Q415.08-22.51 415.44-21.69L415.44-21.69L415.44-21.69Q415.79-20.86 415.79-19.92L415.79-19.92L415.79-15.79L411.27-15.79L411.27-19.92ZM442.09-19.92L442.09-9.91L425.91-9.91L425.91-4.52L442.09-4.52L442.09 0L425.91 0L425.91 0Q425.00 0 424.17-0.36L424.17-0.36L424.17-0.36Q423.34-0.71 422.74-1.32L422.74-1.32L422.74-1.32Q422.13-1.93 421.77-2.75L421.77-2.75L421.77-2.75Q421.42-3.58 421.42-4.52L421.42-4.52L421.42-19.92L421.42-19.92Q421.42-20.86 421.77-21.69L421.77-21.69L421.77-21.69Q422.13-22.51 422.74-23.12L422.74-23.12L422.74-23.12Q423.34-23.73 424.17-24.09L424.17-24.09L424.17-24.09Q425.00-24.44 425.91-24.44L425.91-24.44L437.57-24.44L437.57-24.44Q438.51-24.44 439.34-24.09L439.34-24.09L439.34-24.09Q440.17-23.73 440.77-23.12L440.77-23.12L440.77-23.12Q441.38-22.51 441.74-21.69L441.74-21.69L441.74-21.69Q442.09-20.86 442.09-19.92L442.09-19.92ZM437.57-19.92L425.91-19.92L425.91-14.44L437.57-14.44L437.57-19.92ZM449.14-4.52L464.38-4.52L464.38-10.19L453.66-10.19L453.66-10.19Q452.72-10.19 451.89-10.55L451.89-10.55L451.89-10.55Q451.07-10.90 450.46-11.51L450.46-11.51L450.46-11.51Q449.85-12.12 449.49-12.94L449.49-12.94L449.49-12.94Q449.14-13.77 449.14-14.71L449.14-14.71L449.14-19.92L449.14-19.92Q449.14-20.86 449.49-21.69L449.49-21.69L449.49-21.69Q449.85-22.51 450.46-23.12L450.46-23.12L450.46-23.12Q451.07-23.73 451.89-24.09L451.89-24.09L451.89-24.09Q452.72-24.44 453.66-24.44L453.66-24.44L467.96-24.44L467.96-19.92L453.66-19.92L453.66-14.71L464.38-14.71L464.38-14.71Q465.32-14.71 466.13-14.35L466.13-14.35L466.13-14.35Q466.95-14.00 467.57-13.39L467.57-13.39L467.57-13.39Q468.19-12.78 468.54-11.96L468.54-11.96L468.54-11.96Q468.90-11.13 468.90-10.19L468.90-10.19L468.90-4.52L468.90-4.52Q468.90-3.58 468.54-2.75L468.54-2.75L468.54-2.75Q468.19-1.93 467.57-1.32L467.57-1.32L467.57-1.32Q466.95-0.71 466.13-0.36L466.13-0.36L466.13-0.36Q465.32 0 464.38 0L464.38 0L449.14 0L449.14-4.52Z" fill="#ffffff"></path></g></g><style>text {
  font-size: 64px;
  font-family: Arial Black;
  dominant-baseline: central;
  text-anchor: middle;
}</style></svg>