<svg width="282.60748291015625px" height="69.6399932861328px" xmlns="http://www.w3.org/2000/svg" viewBox="108.69625854492188 40.1800033569336 282.60748291015625 69.6399932861328" style="background: rgba(0, 0, 0, 0);" preserveAspectRatio="xMidYMid"><defs><filter id="editing-hole" x="-100%" y="-100%" width="300%" height="300%"><feFlood flood-color="#000" result="black"></feFlood><feMorphology operator="dilate" radius="2" in="SourceGraphic" result="erode"></feMorphology><feGaussianBlur in="erode" stdDeviation="4" result="blur"></feGaussianBlur><feOffset in="blur" dx="2" dy="2" result="offset"></feOffset><feComposite operator="atop" in="offset" in2="black" result="merge"></feComposite><feComposite operator="in" in="merge" in2="SourceGraphic" result="inner-shadow"></feComposite></filter></defs><g filter="url(#editing-hole)"><g transform="translate(154.22499787807465, 88.95499992370605)"><path d="M10.20 0L6.90 0L0.89-21.01L3.90-21.01L8.55-4.29L13.20-21.01L16.20-21.01L20.84-4.29L25.50-21.01L28.51-21.01L22.50 0L19.20 0L14.71-15.75L10.20 0ZM37.19-21.01L40.20-21.01L48.30 0L45.29 0L43.43-4.83L33.96-4.83L32.09 0L29.09 0L37.19-21.01ZM38.70-17.09L35.10-7.84L42.28-7.84L38.70-17.09ZM54.90 0L51.90 0L51.90-21.01L63.40-21.01L63.40-21.01Q68.50-21.01 68.50-15.89L68.50-15.89L68.50-12.91L68.50-12.91Q68.50-7.79 63.40-7.79L63.40-7.79L54.90-7.79L54.90 0ZM54.90-18.00L54.90-10.80L63.24-10.80L63.24-10.80Q64.44-10.80 64.97-11.32L64.97-11.32L64.97-11.32Q65.49-11.85 65.49-13.05L65.49-13.05L65.49-15.75L65.49-15.75Q65.49-16.95 64.97-17.48L64.97-17.48L64.97-17.48Q64.44-18.00 63.24-18.00L63.24-18.00L54.90-18.00ZM84.68 0L81.68 0L81.68-21.01L93.18-21.01L93.18-21.01Q98.28-21.01 98.28-15.89L98.28-15.89L98.28-12.91L98.28-12.91Q98.28-7.79 93.18-7.79L93.18-7.79L84.68-7.79L84.68 0ZM84.68-18.00L84.68-10.80L93.02-10.80L93.02-10.80Q94.22-10.80 94.75-11.32L94.75-11.32L94.75-11.32Q95.27-11.85 95.27-13.05L95.27-13.05L95.27-15.75L95.27-15.75Q95.27-16.95 94.75-17.48L94.75-17.48L94.75-17.48Q94.22-18.00 93.02-18.00L93.02-18.00L84.68-18.00ZM110.99-12.71L105.04-12.71L105.04 0L102.17 0L102.17-15.60L105.04-15.60L105.04-12.85L105.04-12.85Q105.07-13.42 105.31-13.92L105.31-13.92L105.31-13.92Q105.54-14.43 105.93-14.80L105.93-14.80L105.93-14.80Q106.32-15.18 106.83-15.39L106.83-15.39L106.83-15.39Q107.34-15.60 107.93-15.60L107.93-15.60L110.99-15.60L110.99-15.60Q111.59-15.60 112.11-15.37L112.11-15.37L112.11-15.37Q112.63-15.15 113.03-14.76L113.03-14.76L113.03-14.76Q113.42-14.37 113.65-13.84L113.65-13.84L113.65-13.84Q113.88-13.32 113.88-12.71L113.88-12.71L113.88-10.08L110.99-10.08L110.99-12.71ZM130.96-12.71L130.96-2.89L130.96-2.89Q130.96-2.29 130.73-1.76L130.73-1.76L130.73-1.76Q130.50-1.23 130.11-0.84L130.11-0.84L130.11-0.84Q129.73-0.45 129.21-0.23L129.21-0.23L129.21-0.23Q128.69 0 128.09 0L128.09 0L120.34 0L120.34 0Q119.75 0 119.22-0.23L119.22-0.23L119.22-0.23Q118.70-0.45 118.31-0.84L118.31-0.84L118.31-0.84Q117.92-1.23 117.69-1.76L117.69-1.76L117.69-1.76Q117.47-2.29 117.47-2.89L117.47-2.89L117.47-12.71L117.47-12.71Q117.47-13.32 117.69-13.84L117.69-13.84L117.69-13.84Q117.92-14.37 118.31-14.76L118.31-14.76L118.31-14.76Q118.70-15.15 119.22-15.37L119.22-15.37L119.22-15.37Q119.75-15.60 120.34-15.60L120.34-15.60L128.09-15.60L128.09-15.60Q128.69-15.60 129.21-15.37L129.21-15.37L129.21-15.37Q129.73-15.15 130.11-14.76L130.11-14.76L130.11-14.76Q130.50-14.37 130.73-13.84L130.73-13.84L130.73-13.84Q130.96-13.32 130.96-12.71L130.96-12.71ZM128.09-12.71L120.34-12.71L120.34-2.89L128.09-2.89L128.09-12.71ZM133.65 3.41L135.91 3.41L135.91-15.60L138.79-15.60L138.79 3.41L138.79 3.41Q138.79 4.01 138.57 4.54L138.57 4.54L138.57 4.54Q138.34 5.07 137.95 5.46L137.95 5.46L137.95 5.46Q137.56 5.84 137.04 6.07L137.04 6.07L137.04 6.07Q136.51 6.30 135.91 6.30L135.91 6.30L133.65 6.30L133.65 3.41ZM135.76-18.60L135.76-21.61L138.94-21.61L138.94-18.60L135.76-18.60ZM156.94-12.71L156.94-6.33L146.62-6.33L146.62-2.89L156.94-2.89L156.94 0L146.62 0L146.62 0Q146.03 0 145.50-0.23L145.50-0.23L145.50-0.23Q144.98-0.45 144.59-0.84L144.59-0.84L144.59-0.84Q144.20-1.23 143.97-1.76L143.97-1.76L143.97-1.76Q143.75-2.29 143.75-2.89L143.75-2.89L143.75-12.71L143.75-12.71Q143.75-13.32 143.97-13.84L143.97-13.84L143.97-13.84Q144.20-14.37 144.59-14.76L144.59-14.76L144.59-14.76Q144.98-15.15 145.50-15.37L145.50-15.37L145.50-15.37Q146.03-15.60 146.62-15.60L146.62-15.60L154.06-15.60L154.06-15.60Q154.66-15.60 155.19-15.37L155.19-15.37L155.19-15.37Q155.71-15.15 156.10-14.76L156.10-14.76L156.10-14.76Q156.49-14.37 156.72-13.84L156.72-13.84L156.72-13.84Q156.94-13.32 156.94-12.71L156.94-12.71ZM154.06-12.71L146.62-12.71L146.62-9.21L154.06-9.21L154.06-12.71ZM172.06-12.71L164.62-12.71L164.62-2.89L172.06-2.89L172.06-5.52L174.95-5.52L174.95-2.89L174.95-2.89Q174.95-2.29 174.72-1.76L174.72-1.76L174.72-1.76Q174.49-1.23 174.10-0.84L174.10-0.84L174.10-0.84Q173.72-0.45 173.19-0.23L173.19-0.23L173.19-0.23Q172.66 0 172.06 0L172.06 0L164.62 0L164.62 0Q164.03 0 163.51-0.23L163.51-0.23L163.51-0.23Q162.98-0.45 162.59-0.84L162.59-0.84L162.59-0.84Q162.20-1.23 161.98-1.76L161.98-1.76L161.98-1.76Q161.75-2.29 161.75-2.89L161.75-2.89L161.75-12.71L161.75-12.71Q161.75-13.32 161.98-13.84L161.98-13.84L161.98-13.84Q162.20-14.37 162.59-14.76L162.59-14.76L162.59-14.76Q162.98-15.15 163.51-15.37L163.51-15.37L163.51-15.37Q164.03-15.60 164.62-15.60L164.62-15.60L172.06-15.60L172.06-15.60Q172.66-15.60 173.19-15.37L173.19-15.37L173.19-15.37Q173.72-15.15 174.10-14.76L174.10-14.76L174.10-14.76Q174.49-14.37 174.72-13.84L174.72-13.84L174.72-13.84Q174.95-13.32 174.95-12.71L174.95-12.71L174.95-10.08L172.06-10.08L172.06-12.71ZM178.84-12.71L178.84-15.60L182.65-15.60L182.65-20.41L185.54-20.41L185.54-15.60L190.66-15.60L190.66-12.71L185.54-12.71L185.54-2.89L190.66-2.89L190.66 0L185.54 0L185.54 0Q184.95 0 184.42-0.23L184.42-0.23L184.42-0.23Q183.90-0.45 183.50-0.84L183.50-0.84L183.50-0.84Q183.11-1.23 182.88-1.76L182.88-1.76L182.88-1.76Q182.65-2.29 182.65-2.89L182.65-2.89L182.65-12.71L178.84-12.71Z" fill="#ccc"></path></g></g><style>text {
  font-size: 64px;
  font-family: Arial Black;
  dominant-baseline: central;
  text-anchor: middle;
}</style></svg>