<svg width="618.7400512695312px" height="69.6400390625px" xmlns="http://www.w3.org/2000/svg" viewBox="-59.370025634765625 40.17998046875 618.7400512695312 69.6400390625" style="background: rgba(0, 0, 0, 0);" preserveAspectRatio="xMidYMid"><defs><filter id="editing-hole" x="-100%" y="-100%" width="300%" height="300%"><feFlood flood-color="#fa0101" result="black"></feFlood><feMorphology operator="dilate" radius="2" in="SourceGraphic" result="erode"></feMorphology><feGaussianBlur in="erode" stdDeviation="4" result="blur"></feGaussianBlur><feOffset in="blur" dx="2" dy="2" result="offset"></feOffset><feComposite operator="atop" in="offset" in2="black" result="merge"></feComposite><feComposite operator="in" in="merge" in2="SourceGraphic" result="inner-shadow"></feComposite></filter></defs><g filter="url(#editing-hole)"><g transform="translate(29.730007886886597, 88.95499992370605)"><path d="M2.70-21.01L5.70-21.01L5.70-3.00L16.49-3.00L16.49 0L2.70 0L2.70-21.01ZM19.95-15.60L22.84-15.60L22.84 0L19.95 0L19.95-15.60ZM19.80-18.60L19.80-21.61L22.98-21.61L22.98-18.60L19.80-18.60ZM41.59-12.71L41.59-2.89L41.59-2.89Q41.59-2.29 41.36-1.76L41.36-1.76L41.36-1.76Q41.13-1.23 40.74-0.84L40.74-0.84L40.74-0.84Q40.36-0.45 39.83-0.23L39.83-0.23L39.83-0.23Q39.30 0 38.70 0L38.70 0L30.66 0L30.66 0Q30.07 0 29.55-0.23L29.55-0.23L29.55-0.23Q29.02-0.45 28.63-0.84L28.63-0.84L28.63-0.84Q28.24-1.23 28.02-1.76L28.02-1.76L28.02-1.76Q27.79-2.29 27.79-2.89L27.79-2.89L27.79-21.61L30.66-21.61L30.66-12.85L30.66-12.85Q30.69-13.42 30.92-13.92L30.92-13.92L30.92-13.92Q31.16-14.43 31.55-14.80L31.55-14.80L31.55-14.80Q31.93-15.18 32.45-15.39L32.45-15.39L32.45-15.39Q32.96-15.60 33.54-15.60L33.54-15.60L38.70-15.60L38.70-15.60Q39.30-15.60 39.83-15.37L39.83-15.37L39.83-15.37Q40.36-15.15 40.74-14.76L40.74-14.76L40.74-14.76Q41.13-14.37 41.36-13.84L41.36-13.84L41.36-13.84Q41.59-13.32 41.59-12.71L41.59-12.71ZM38.70-12.71L30.66-12.71L30.66-2.89L38.70-2.89L38.70-12.71ZM55.21-12.71L49.26-12.71L49.26 0L46.39 0L46.39-15.60L49.26-15.60L49.26-12.85L49.26-12.85Q49.29-13.42 49.53-13.92L49.53-13.92L49.53-13.92Q49.76-14.43 50.15-14.80L50.15-14.80L50.15-14.80Q50.54-15.18 51.05-15.39L51.05-15.39L51.05-15.39Q51.56-15.60 52.15-15.60L52.15-15.60L55.21-15.60L55.21-15.60Q55.81-15.60 56.33-15.37L56.33-15.37L56.33-15.37Q56.85-15.15 57.25-14.76L57.25-14.76L57.25-14.76Q57.64-14.37 57.87-13.84L57.87-13.84L57.87-13.84Q58.10-13.32 58.10-12.71L58.10-12.71L58.10-10.08L55.21-10.08L55.21-12.71ZM61.68-2.89L61.68-6.81L61.68-6.81Q61.68-7.41 61.91-7.93L61.91-7.93L61.91-7.93Q62.14-8.45 62.53-8.85L62.53-8.85L62.53-8.85Q62.92-9.24 63.44-9.47L63.44-9.47L63.44-9.47Q63.97-9.70 64.56-9.70L64.56-9.70L72.00-9.70L72.00-12.71L62.58-12.71L62.58-15.60L72.00-15.60L72.00-15.60Q72.60-15.60 73.13-15.37L73.13-15.37L73.13-15.37Q73.65-15.15 74.04-14.76L74.04-14.76L74.04-14.76Q74.43-14.37 74.66-13.84L74.66-13.84L74.66-13.84Q74.88-13.32 74.88-12.71L74.88-12.71L74.88 0L72.00 0L72.00-2.64L72.00-2.64Q71.95-2.09 71.70-1.61L71.70-1.61L71.70-1.61Q71.46-1.13 71.07-0.77L71.07-0.77L71.07-0.77Q70.68-0.41 70.18-0.21L70.18-0.21L70.18-0.21Q69.68 0 69.13 0L69.13 0L64.56 0L64.56 0Q63.97 0 63.44-0.23L63.44-0.23L63.44-0.23Q62.92-0.45 62.53-0.84L62.53-0.84L62.53-0.84Q62.14-1.23 61.91-1.76L61.91-1.76L61.91-1.76Q61.68-2.29 61.68-2.89L61.68-2.89ZM64.56-6.81L64.56-2.89L72.00-2.89L72.00-6.81L64.56-6.81ZM88.51-12.71L82.56-12.71L82.56 0L79.69 0L79.69-15.60L82.56-15.60L82.56-12.85L82.56-12.85Q82.59-13.42 82.82-13.92L82.82-13.92L82.82-13.92Q83.06-14.43 83.44-14.80L83.44-14.80L83.44-14.80Q83.83-15.18 84.35-15.39L84.35-15.39L84.35-15.39Q84.86-15.60 85.44-15.60L85.44-15.60L88.51-15.60L88.51-15.60Q89.11-15.60 89.63-15.37L89.63-15.37L89.63-15.37Q90.15-15.15 90.54-14.76L90.54-14.76L90.54-14.76Q90.94-14.37 91.16-13.84L91.16-13.84L91.16-13.84Q91.39-13.32 91.39-12.71L91.39-12.71L91.39-10.08L88.51-10.08L88.51-12.71ZM98.91 6.30L96.04 6.30L99.30-1.41L93.18-15.60L96.21-15.60L100.77-4.86L105.32-15.60L108.35-15.60L98.91 6.30ZM132.38 0L131.48 0L123.65-15.40L123.65 0L120.64 0L120.64-21.01L123.93-21.01L131.92-5.19L139.94-21.01L143.20-21.01L143.20 0L140.21 0L140.21-15.40L132.38 0ZM148.32-2.89L148.32-6.81L148.32-6.81Q148.32-7.41 148.54-7.93L148.54-7.93L148.54-7.93Q148.77-8.45 149.16-8.85L149.16-8.85L149.16-8.85Q149.55-9.24 150.07-9.47L150.07-9.47L150.07-9.47Q150.60-9.70 151.19-9.70L151.19-9.70L158.63-9.70L158.63-12.71L149.21-12.71L149.21-15.60L158.63-15.60L158.63-15.60Q159.23-15.60 159.76-15.37L159.76-15.37L159.76-15.37Q160.28-15.15 160.67-14.76L160.67-14.76L160.67-14.76Q161.06-14.37 161.29-13.84L161.29-13.84L161.29-13.84Q161.51-13.32 161.51-12.71L161.51-12.71L161.51 0L158.63 0L158.63-2.64L158.63-2.64Q158.58-2.09 158.33-1.61L158.33-1.61L158.33-1.61Q158.09-1.13 157.70-0.77L157.70-0.77L157.70-0.77Q157.31-0.41 156.81-0.21L156.81-0.21L156.81-0.21Q156.31 0 155.76 0L155.76 0L151.19 0L151.19 0Q150.60 0 150.07-0.23L150.07-0.23L150.07-0.23Q149.55-0.45 149.16-0.84L149.16-0.84L149.16-0.84Q148.77-1.23 148.54-1.76L148.54-1.76L148.54-1.76Q148.32-2.29 148.32-2.89L148.32-2.89ZM151.19-6.81L151.19-2.89L158.63-2.89L158.63-6.81L151.19-6.81ZM180.12-12.71L180.12 0L177.23 0L177.23-12.71L169.19-12.71L169.19 0L166.32 0L166.32-15.60L169.19-15.60L169.19-12.85L169.19-12.85Q169.22-13.42 169.45-13.92L169.45-13.92L169.45-13.92Q169.69-14.43 170.08-14.80L170.08-14.80L170.08-14.80Q170.46-15.18 170.98-15.39L170.98-15.39L170.98-15.39Q171.49-15.60 172.08-15.60L172.08-15.60L177.23-15.60L177.23-15.60Q177.83-15.60 178.36-15.37L178.36-15.37L178.36-15.37Q178.89-15.15 179.27-14.76L179.27-14.76L179.27-14.76Q179.66-14.37 179.89-13.84L179.89-13.84L179.89-13.84Q180.12-13.32 180.12-12.71L180.12-12.71ZM184.92-2.89L184.92-6.81L184.92-6.81Q184.92-7.41 185.15-7.93L185.15-7.93L185.15-7.93Q185.38-8.45 185.76-8.85L185.76-8.85L185.76-8.85Q186.15-9.24 186.68-9.47L186.68-9.47L186.68-9.47Q187.21-9.70 187.79-9.70L187.79-9.70L195.23-9.70L195.23-12.71L185.82-12.71L185.82-15.60L195.23-15.60L195.23-15.60Q195.83-15.60 196.36-15.37L196.36-15.37L196.36-15.37Q196.89-15.15 197.28-14.76L197.28-14.76L197.28-14.76Q197.67-14.37 197.89-13.84L197.89-13.84L197.89-13.84Q198.12-13.32 198.12-12.71L198.12-12.71L198.12 0L195.23 0L195.23-2.64L195.23-2.64Q195.19-2.09 194.94-1.61L194.94-1.61L194.94-1.61Q194.69-1.13 194.30-0.77L194.30-0.77L194.30-0.77Q193.92-0.41 193.42-0.21L193.42-0.21L193.42-0.21Q192.92 0 192.36 0L192.36 0L187.79 0L187.79 0Q187.21 0 186.68-0.23L186.68-0.23L186.68-0.23Q186.15-0.45 185.76-0.84L185.76-0.84L185.76-0.84Q185.38-1.23 185.15-1.76L185.15-1.76L185.15-1.76Q184.92-2.29 184.92-2.89L184.92-2.89ZM187.79-6.81L187.79-2.89L195.23-2.89L195.23-6.81L187.79-6.81ZM202.92-3.49L202.92-12.71L202.92-12.71Q202.92-13.32 203.15-13.84L203.15-13.84L203.15-13.84Q203.38-14.37 203.77-14.76L203.77-14.76L203.77-14.76Q204.16-15.15 204.68-15.37L204.68-15.37L204.68-15.37Q205.21-15.60 205.80-15.60L205.80-15.60L210.97-15.60L210.97-15.60Q211.54-15.60 212.05-15.39L212.05-15.39L212.05-15.39Q212.56-15.18 212.95-14.80L212.95-14.80L212.95-14.80Q213.34-14.43 213.58-13.92L213.58-13.92L213.58-13.92Q213.82-13.42 213.84-12.85L213.84-12.85L213.84-15.60L216.72-15.60L216.72 3.41L216.72 3.41Q216.72 4.01 216.50 4.54L216.50 4.54L216.50 4.54Q216.27 5.07 215.88 5.46L215.88 5.46L215.88 5.46Q215.49 5.84 214.97 6.07L214.97 6.07L214.97 6.07Q214.44 6.30 213.84 6.30L213.84 6.30L204.73 6.30L204.73 3.41L213.84 3.41L213.84-0.60L205.80-0.60L205.80-0.60Q205.21-0.60 204.68-0.83L204.68-0.83L204.68-0.83Q204.16-1.05 203.77-1.44L203.77-1.44L203.77-1.44Q203.38-1.83 203.15-2.36L203.15-2.36L203.15-2.36Q202.92-2.89 202.92-3.49L202.92-3.49ZM205.80-3.49L213.84-3.49L213.84-12.71L205.80-12.71L205.80-3.49ZM234.73-12.71L234.73-6.33L224.40-6.33L224.40-2.89L234.73-2.89L234.73 0L224.40 0L224.40 0Q223.81 0 223.29-0.23L223.29-0.23L223.29-0.23Q222.76-0.45 222.37-0.84L222.37-0.84L222.37-0.84Q221.98-1.23 221.76-1.76L221.76-1.76L221.76-1.76Q221.53-2.29 221.53-2.89L221.53-2.89L221.53-12.71L221.53-12.71Q221.53-13.32 221.76-13.84L221.76-13.84L221.76-13.84Q221.98-14.37 222.37-14.76L222.37-14.76L222.37-14.76Q222.76-15.15 223.29-15.37L223.29-15.37L223.29-15.37Q223.81-15.60 224.40-15.60L224.40-15.60L231.84-15.60L231.84-15.60Q232.44-15.60 232.97-15.37L232.97-15.37L232.97-15.37Q233.50-15.15 233.88-14.76L233.88-14.76L233.88-14.76Q234.27-14.37 234.50-13.84L234.50-13.84L234.50-13.84Q234.73-13.32 234.73-12.71L234.73-12.71ZM231.84-12.71L224.40-12.71L224.40-9.21L231.84-9.21L231.84-12.71ZM258.49-12.71L251.89-12.71L251.89 0L249.01 0L249.01-12.71L242.40-12.71L242.40 0L239.53 0L239.53-15.60L242.40-15.60L242.40-12.85L242.40-12.85Q242.43-13.42 242.67-13.92L242.67-13.92L242.67-13.92Q242.90-14.43 243.29-14.80L243.29-14.80L243.29-14.80Q243.68-15.18 244.19-15.39L244.19-15.39L244.19-15.39Q244.70-15.60 245.29-15.60L245.29-15.60L249.01-15.60L249.01-15.60Q249.58-15.60 250.09-15.39L250.09-15.39L250.09-15.39Q250.61-15.18 251.00-14.80L251.00-14.80L251.00-14.80Q251.40-14.43 251.64-13.92L251.64-13.92L251.64-13.92Q251.88-13.42 251.89-12.85L251.89-12.85L251.89-12.85Q251.92-13.42 252.15-13.92L252.15-13.92L252.15-13.92Q252.38-14.43 252.77-14.80L252.77-14.80L252.77-14.80Q253.15-15.18 253.67-15.39L253.67-15.39L253.67-15.39Q254.18-15.60 254.77-15.60L254.77-15.60L258.49-15.60L258.49-15.60Q259.09-15.60 259.61-15.37L259.61-15.37L259.61-15.37Q260.14-15.15 260.53-14.76L260.53-14.76L260.53-14.76Q260.92-14.37 261.15-13.84L261.15-13.84L261.15-13.84Q261.37-13.32 261.37-12.71L261.37-12.71L261.37 0L258.49 0L258.49-12.71ZM279.38-12.71L279.38-6.33L269.05-6.33L269.05-2.89L279.38-2.89L279.38 0L269.05 0L269.05 0Q268.46 0 267.93-0.23L267.93-0.23L267.93-0.23Q267.41-0.45 267.02-0.84L267.02-0.84L267.02-0.84Q266.63-1.23 266.40-1.76L266.40-1.76L266.40-1.76Q266.18-2.29 266.18-2.89L266.18-2.89L266.18-12.71L266.18-12.71Q266.18-13.32 266.40-13.84L266.40-13.84L266.40-13.84Q266.63-14.37 267.02-14.76L267.02-14.76L267.02-14.76Q267.41-15.15 267.93-15.37L267.93-15.37L267.93-15.37Q268.46-15.60 269.05-15.60L269.05-15.60L276.49-15.60L276.49-15.60Q277.09-15.60 277.62-15.37L277.62-15.37L277.62-15.37Q278.14-15.15 278.53-14.76L278.53-14.76L278.53-14.76Q278.92-14.37 279.15-13.84L279.15-13.84L279.15-13.84Q279.38-13.32 279.38-12.71L279.38-12.71ZM276.49-12.71L269.05-12.71L269.05-9.21L276.49-9.21L276.49-12.71ZM297.98-12.71L297.98 0L295.09 0L295.09-12.71L287.05-12.71L287.05 0L284.18 0L284.18-15.60L287.05-15.60L287.05-12.85L287.05-12.85Q287.08-13.42 287.31-13.92L287.31-13.92L287.31-13.92Q287.55-14.43 287.94-14.80L287.94-14.80L287.94-14.80Q288.33-15.18 288.84-15.39L288.84-15.39L288.84-15.39Q289.35-15.60 289.94-15.60L289.94-15.60L295.09-15.60L295.09-15.60Q295.69-15.60 296.22-15.37L296.22-15.37L296.22-15.37Q296.75-15.15 297.14-14.76L297.14-14.76L297.14-14.76Q297.52-14.37 297.75-13.84L297.75-13.84L297.75-13.84Q297.98-13.32 297.98-12.71L297.98-12.71ZM301.88-12.71L301.88-15.60L305.68-15.60L305.68-20.41L308.57-20.41L308.57-15.60L313.70-15.60L313.70-12.71L308.57-12.71L308.57-2.89L313.70-2.89L313.70 0L308.57 0L308.57 0Q307.98 0 307.46-0.23L307.46-0.23L307.46-0.23Q306.93-0.45 306.53-0.84L306.53-0.84L306.53-0.84Q306.14-1.23 305.91-1.76L305.91-1.76L305.91-1.76Q305.68-2.29 305.68-2.89L305.68-2.89L305.68-12.71L301.88-12.71ZM340.99-8.99L330.79-8.99L330.79-8.99Q330.18-8.99 329.63-9.24L329.63-9.24L329.63-9.24Q329.08-9.48 328.67-9.88L328.67-9.88L328.67-9.88Q328.26-10.28 328.02-10.83L328.02-10.83L328.02-10.83Q327.79-11.38 327.79-12.00L327.79-12.00L327.79-18.00L327.79-18.00Q327.79-18.62 328.02-19.17L328.02-19.17L328.02-19.17Q328.26-19.72 328.67-20.12L328.67-20.12L328.67-20.12Q329.08-20.52 329.63-20.76L329.63-20.76L329.63-20.76Q330.18-21.01 330.79-21.01L330.79-21.01L340.99-21.01L340.99-21.01Q341.60-21.01 342.15-20.76L342.15-20.76L342.15-20.76Q342.70-20.52 343.11-20.12L343.11-20.12L343.11-20.12Q343.52-19.72 343.75-19.17L343.75-19.17L343.75-19.17Q343.99-18.62 343.99-18.00L343.99-18.00L343.99-15.29L340.99-15.29L340.99-18.00L330.79-18.00L330.79-12.00L340.99-12.00L340.99-12.00Q341.60-12.00 342.15-11.76L342.15-11.76L342.15-11.76Q342.70-11.53 343.11-11.12L343.11-11.12L343.11-11.12Q343.52-10.71 343.75-10.16L343.75-10.16L343.75-10.16Q343.99-9.61 343.99-8.99L343.99-8.99L343.99-3.00L343.99-3.00Q343.99-2.39 343.75-1.84L343.75-1.84L343.75-1.84Q343.52-1.29 343.11-0.88L343.11-0.88L343.11-0.88Q342.70-0.47 342.15-0.23L342.15-0.23L342.15-0.23Q341.60 0 340.99 0L340.99 0L330.50 0L330.50 0Q329.88 0 329.33-0.23L329.33-0.23L329.33-0.23Q328.78-0.47 328.37-0.88L328.37-0.88L328.37-0.88Q327.96-1.29 327.73-1.84L327.73-1.84L327.73-1.84Q327.50-2.39 327.50-3.00L327.50-3.00L327.50-5.70L330.50-5.70L330.50-3.00L340.99-3.00L340.99-8.99ZM353.03 6.30L350.16 6.30L353.42-1.41L347.30-15.60L350.33-15.60L354.89-4.86L359.44-15.60L362.48-15.60L353.03 6.30ZM365.17-2.89L374.90-2.89L374.90-6.50L368.06-6.50L368.06-6.50Q367.46-6.50 366.93-6.73L366.93-6.73L366.93-6.73Q366.40-6.96 366.01-7.35L366.01-7.35L366.01-7.35Q365.63-7.73 365.40-8.26L365.40-8.26L365.40-8.26Q365.17-8.79 365.17-9.39L365.17-9.39L365.17-12.71L365.17-12.71Q365.17-13.32 365.40-13.84L365.40-13.84L365.40-13.84Q365.63-14.37 366.01-14.76L366.01-14.76L366.01-14.76Q366.40-15.15 366.93-15.37L366.93-15.37L366.93-15.37Q367.46-15.60 368.06-15.60L368.06-15.60L377.18-15.60L377.18-12.71L368.06-12.71L368.06-9.39L374.90-9.39L374.90-9.39Q375.50-9.39 376.02-9.16L376.02-9.16L376.02-9.16Q376.54-8.94 376.93-8.55L376.93-8.55L376.93-8.55Q377.33-8.16 377.56-7.63L377.56-7.63L377.56-7.63Q377.78-7.10 377.78-6.50L377.78-6.50L377.78-2.89L377.78-2.89Q377.78-2.29 377.56-1.76L377.56-1.76L377.56-1.76Q377.33-1.23 376.93-0.84L376.93-0.84L376.93-0.84Q376.54-0.45 376.02-0.23L376.02-0.23L376.02-0.23Q375.50 0 374.90 0L374.90 0L365.17 0L365.17-2.89ZM381.37-12.71L381.37-15.60L385.18-15.60L385.18-20.41L388.07-20.41L388.07-15.60L393.19-15.60L393.19-12.71L388.07-12.71L388.07-2.89L393.19-2.89L393.19 0L388.07 0L388.07 0Q387.48 0 386.95-0.23L386.95-0.23L386.95-0.23Q386.43-0.45 386.03-0.84L386.03-0.84L386.03-0.84Q385.63-1.23 385.41-1.76L385.41-1.76L385.41-1.76Q385.18-2.29 385.18-2.89L385.18-2.89L385.18-12.71L381.37-12.71ZM411.20-12.71L411.20-6.33L400.87-6.33L400.87-2.89L411.20-2.89L411.20 0L400.87 0L400.87 0Q400.28 0 399.76-0.23L399.76-0.23L399.76-0.23Q399.23-0.45 398.84-0.84L398.84-0.84L398.84-0.84Q398.45-1.23 398.23-1.76L398.23-1.76L398.23-1.76Q398.00-2.29 398.00-2.89L398.00-2.89L398.00-12.71L398.00-12.71Q398.00-13.32 398.23-13.84L398.23-13.84L398.23-13.84Q398.45-14.37 398.84-14.76L398.84-14.76L398.84-14.76Q399.23-15.15 399.76-15.37L399.76-15.37L399.76-15.37Q400.28-15.60 400.87-15.60L400.87-15.60L408.31-15.60L408.31-15.60Q408.91-15.60 409.44-15.37L409.44-15.37L409.44-15.37Q409.97-15.15 410.35-14.76L410.35-14.76L410.35-14.76Q410.74-14.37 410.97-13.84L410.97-13.84L410.97-13.84Q411.20-13.32 411.20-12.71L411.20-12.71ZM408.31-12.71L400.87-12.71L400.87-9.21L408.31-9.21L408.31-12.71ZM434.96-12.71L428.36-12.71L428.36 0L425.48 0L425.48-12.71L418.87-12.71L418.87 0L416.00 0L416.00-15.60L418.87-15.60L418.87-12.85L418.87-12.85Q418.90-13.42 419.14-13.92L419.14-13.92L419.14-13.92Q419.37-14.43 419.76-14.80L419.76-14.80L419.76-14.80Q420.15-15.18 420.66-15.39L420.66-15.39L420.66-15.39Q421.17-15.60 421.76-15.60L421.76-15.60L425.48-15.60L425.48-15.60Q426.05-15.60 426.56-15.39L426.56-15.39L426.56-15.39Q427.08-15.18 427.47-14.80L427.47-14.80L427.47-14.80Q427.87-14.43 428.11-13.92L428.11-13.92L428.11-13.92Q428.35-13.42 428.36-12.85L428.36-12.85L428.36-12.85Q428.39-13.42 428.62-13.92L428.62-13.92L428.62-13.92Q428.85-14.43 429.24-14.80L429.24-14.80L429.24-14.80Q429.62-15.18 430.14-15.39L430.14-15.39L430.14-15.39Q430.65-15.60 431.24-15.60L431.24-15.60L434.96-15.60L434.96-15.60Q435.56-15.60 436.08-15.37L436.08-15.37L436.08-15.37Q436.61-15.15 437.00-14.76L437.00-14.76L437.00-14.76Q437.39-14.37 437.61-13.84L437.61-13.84L437.61-13.84Q437.84-13.32 437.84-12.71L437.84-12.71L437.84 0L434.96 0L434.96-12.71Z" fill="#da8787"></path></g></g><style>text {
  font-size: 64px;
  font-family: Arial Black;
  dominant-baseline: central;
  text-anchor: middle;
}</style></svg>